HIERARCHY
ROOT Hips
{
 OFFSET 0.000000 0.000000 0.000000
 CHANNELS 6 Xposition Yposition Zposition Yrotation Xrotation Zrotation
 JOINT Chest
 {
  OFFSET 0.000000 13.173100 -0.061900
  CHANNELS 3 Yrotation Xrotation Zrotation
  JOINT Chest2
  {
   OFFSET 0.000000 8.040800 0.126200
   CHANNELS 3 Yrotation Xrotation Zrotation
   JOINT Chest3
   {
    OFFSET 0.000000 7.994400 0.000000
    CHANNELS 3 Yrotation Xrotation Zrotation
    JOINT Chest4
    {
     OFFSET 0.000000 7.986200 0.000000
     CHANNELS 3 Yrotation Xrotation Zrotation
     JOINT Neck
     {
      OFFSET 0.000000 12.259400 0.000000
      CHANNELS 3 Yrotation Xrotation Zrotation
      JOINT Head
      {
       OFFSET 0.000000 7.518700 0.267100
       CHANNELS 3 Yrotation Xrotation Zrotation
       End Site
       {
        OFFSET 0.000000 13.617700 0.141000
       }
      }
     }
     JOINT RightCollar
     {
      OFFSET -2.983800 8.314300 0.000000
      CHANNELS 3 Yrotation Xrotation Zrotation
      JOINT RightShoulder
      {
       OFFSET -16.133400 0.000000 0.000000
       CHANNELS 3 Yrotation Xrotation Zrotation
       JOINT RightElbow
       {
        OFFSET 0.000000 -29.822100 0.000000
        CHANNELS 3 Yrotation Xrotation Zrotation
        JOINT RightWrist
        {
         OFFSET 0.000000 -24.437700 0.010900
         CHANNELS 3 Yrotation Xrotation Zrotation
         End Site
         {
          OFFSET 0.000000 -18.312300 0.000000
         }
        }
       }
      }
     }
     JOINT LeftCollar
     {
      OFFSET 2.983800 8.314300 0.000000
      CHANNELS 3 Yrotation Xrotation Zrotation
      JOINT LeftShoulder
      {
       OFFSET 16.133400 0.000000 0.000000
       CHANNELS 3 Yrotation Xrotation Zrotation
       JOINT LeftElbow
       {
        OFFSET 0.000000 -29.822100 0.000000
        CHANNELS 3 Yrotation Xrotation Zrotation
        JOINT LeftWrist
        {
         OFFSET 0.000000 -24.437700 0.010900
         CHANNELS 3 Yrotation Xrotation Zrotation
         End Site
         {
          OFFSET 0.000000 -18.312300 0.000000
         }
        }
       }
      }
     }
    }
   }
  }
 }
 JOINT RightHip
 {
  OFFSET -11.206700 0.306200 0.030900
  CHANNELS 3 Yrotation Xrotation Zrotation
  JOINT RightKnee
  {
   OFFSET 0.000000 -57.334900 0.009400
   CHANNELS 3 Yrotation Xrotation Zrotation
   JOINT RightAnkle
   {
    OFFSET 0.000000 -43.376200 0.036600
    CHANNELS 3 Yrotation Xrotation Zrotation
    JOINT RightToe
    {
     OFFSET 0.000000 -10.035500 18.363100
     CHANNELS 3 Yrotation Xrotation Zrotation
     End Site
     {
      OFFSET 0.000000 -1.618500 7.239000
     }
    }
   }
  }
 }
 JOINT LeftHip
 {
  OFFSET 11.206700 0.306200 0.030900
  CHANNELS 3 Yrotation Xrotation Zrotation
  JOINT LeftKnee
  {
   OFFSET 0.000000 -57.334900 0.009400
   CHANNELS 3 Yrotation Xrotation Zrotation
   JOINT LeftAnkle
   {
    OFFSET 0.000000 -43.376200 0.036600
    CHANNELS 3 Yrotation Xrotation Zrotation
    JOINT LeftToe
    {
     OFFSET 0.000000 -10.035500 18.363100
     CHANNELS 3 Yrotation Xrotation Zrotation
     End Site
     {
      OFFSET 0.000000 -1.618500 7.239000
     }
    }
   }
  }
 }
}
MOTION
Frames: 15
Frame Time: 0.008333
-96.236101 64.969773 93.607504 173.497647 -38.150523 -2.115959 2.043067 20.276123 2.113314 0.244722 2.665765 0.374786 0.409541 4.357285 0.619320 1.998809 17.570260 2.766179 1.947728 16.185872 -0.703673 3.913130 -5.751107 -2.078930 -5.668687 0.632908 -1.990753 -1.147870 -1.242172 3.740277 -100.033345 -85.781204 111.630894 1.501319 0.416088 -0.679498 -4.445925 2.092354 -0.609862 11.130974 -1.933830 2.367014 152.211964 -78.608237 -161.075278 -6.095149 -2.310176 1.298069 -2.551491 -43.427894 3.213069 -123.166620 87.586855 -119.074333 -1.441508 -8.877134 -1.696565 0.143654 -0.168769 0.102568 0.292422 -39.451840 1.776256 69.118106 82.909705 60.032058 -5.269649 -12.424629 9.451077 0.684253 1.291994 0.378918
-96.236650 64.953687 93.613889 173.513762 -38.159859 -2.111198 2.051550 20.272697 2.102361 0.245528 2.662123 0.372476 0.410776 4.351636 0.615538 2.003616 17.561062 2.753148 1.934833 16.190998 -0.700232 3.887304 -5.726913 -2.065900 -5.686800 0.666135 -1.996178 -1.212826 -1.236528 3.695991 -101.526903 -85.774719 113.149483 1.605862 0.981730 -0.324887 -4.459673 2.179717 -0.579550 11.155521 -1.976290 2.350248 150.755847 -78.325089 -159.627772 -6.204185 -1.624906 0.492572 -2.666323 -43.397609 3.256285 -122.526118 87.578928 -118.506696 -1.418924 -8.881718 -1.703135 0.144109 -0.175767 0.096615 0.246906 -39.448049 1.774629 69.086862 82.898168 59.993567 -5.259287 -12.394209 9.423108 0.684200 1.287406 0.378677
-96.237954 64.934923 93.622261 173.529415 -38.154259 -2.108679 2.058611 20.265049 2.092861 0.246100 2.658629 0.370035 0.411621 4.346223 0.611507 2.006686 17.552543 2.738961 1.927577 16.187621 -0.699430 3.861007 -5.708275 -2.054710 -5.704424 0.685694 -2.001991 -1.271587 -1.223243 3.651132 -103.678852 -85.792099 115.306971 1.751755 1.654736 0.114791 -4.462412 2.269060 -0.548737 11.217663 -2.001537 2.316088 149.129560 -77.954999 -158.069777 -6.285267 -0.957537 -0.421696 -2.735837 -43.389487 3.265665 -122.122017 87.580227 -118.135362 -1.399901 -8.879001 -1.713564 0.144687 -0.187138 0.089714 0.177895 -39.466539 1.784855 69.151370 82.879665 60.035792 -5.240433 -12.356135 9.392917 0.679210 1.272168 0.376958
-96.241990 64.915086 93.630419 173.540684 -38.144341 -2.094641 2.057763 20.259495 2.071955 0.246332 2.656133 0.368021 0.415910 4.343358 0.605013 2.004669 17.545339 2.730391 1.915968 16.180520 -0.742651 3.842316 -5.699021 -2.012182 -5.715585 0.693354 -2.014347 -1.329215 -1.208962 3.604647 -106.480026 -85.831745 118.094562 1.949183 2.434272 0.667800 -4.456798 2.338138 -0.526624 11.381132 -1.941817 2.259569 147.638534 -77.466256 -156.762647 -6.339594 -0.280951 -1.427067 -2.764301 -43.390745 3.243823 -121.903181 87.585185 -117.928544 -1.392406 -8.878182 -1.729272 0.152277 -0.196808 0.089505 0.177036 -39.480009 1.757357 69.092503 82.864799 59.992746 -5.252020 -12.345609 9.360633 0.694975 1.282151 0.388628
-96.245418 64.894502 93.639075 173.550395 -38.128844 -2.083501 2.061106 20.255119 2.054024 0.234591 2.646562 0.371283 0.427774 4.345597 0.592972 1.996640 17.539290 2.738041 1.905316 16.180091 -0.770735 3.826577 -5.699957 -2.005757 -5.718996 0.694558 -2.024218 -1.393471 -1.199472 3.537595 -109.823108 -85.882739 121.408819 2.208229 3.312206 1.361012 -4.446139 2.407039 -0.525618 11.521944 -1.909800 2.223644 146.231227 -76.942697 -155.517036 -6.371248 0.428110 -2.509583 -2.779119 -43.398985 3.211709 -121.889649 87.605061 -117.912738 -1.383134 -8.878508 -1.747494 0.151680 -0.198757 0.088112 0.147252 -39.506589 1.747944 69.133056 82.847947 60.029659 -5.251800 -12.321634 9.330827 0.699225 1.276219 0.394052
-96.246677 64.875283 93.646516 173.549652 -38.118970 -2.073169 2.079086 20.260155 2.040545 0.231365 2.639898 0.374586 0.420271 4.339279 0.592672 2.002913 17.535091 2.712120 1.892618 16.178225 -0.771184 3.778372 -5.711497 -2.021439 -5.730167 0.697830 -2.006151 -1.467917 -1.193466 3.471543 -113.595655 -85.926042 125.142246 2.533420 4.279111 2.204994 -4.446011 2.480288 -0.502237 11.663549 -1.895536 2.209080 145.051383 -76.394773 -154.494223 -6.397071 1.176404 -3.644965 -2.777179 -43.402657 3.176684 -121.956426 87.632049 -117.964425 -1.369832 -8.874985 -1.765907 0.143070 -0.202947 0.083599 0.121928 -39.525828 1.749519 69.183318 82.836759 60.067874 -5.234668 -12.306229 9.316706 0.684342 1.272891 0.386466
-96.244240 64.856667 93.654649 173.552559 -38.105169 -2.077430 2.085465 20.252623 2.039551 0.239993 2.642524 0.368212 0.413128 4.332666 0.596707 2.018958 17.538177 2.639809 1.882950 16.165456 -0.721786 3.773745 -5.717639 -1.996124 -5.757166 0.695085 -1.959465 -1.548940 -1.188349 3.431231 -117.633701 -85.942162 129.138404 2.925464 5.327625 3.205801 -4.447652 2.547025 -0.434357 11.829342 -1.878730 2.216993 144.137024 -75.820029 -153.762138 -6.433857 1.966981 -4.808191 -2.768286 -43.407991 3.151023 -122.006487 87.665678 -117.984957 -1.373090 -8.872071 -1.786887 0.137117 -0.209526 0.082432 0.062754 -39.552221 1.787407 69.266298 82.834328 60.121072 -5.221400 -12.286287 9.305004 0.674199 1.260879 0.381653
-96.244107 64.837657 93.664189 173.562868 -38.078844 -2.070883 2.079418 20.234101 2.020232 0.260247 2.657633 0.335393 0.403673 4.318504 0.615309 2.020007 17.535834 2.617437 1.881099 16.154473 -0.692454 3.763631 -5.725785 -1.989389 -5.793867 0.686481 -2.008026 -1.628633 -1.186475 3.451451 -121.747865 -85.922483 133.214183 3.381311 6.446746 4.367296 -4.432512 2.603112 -0.411334 12.025884 -1.855814 2.245439 143.450731 -75.223377 -153.290864 -6.497112 2.806237 -6.000778 -2.755675 -43.427666 3.113584 -122.069490 87.698924 -118.026410 -1.388771 -8.871862 -1.807791 0.145976 -0.216848 0.086022 0.056420 -39.581500 1.774589 69.300261 82.799143 60.171330 -5.262445 -12.286214 9.276454 0.687132 1.278502 0.388961
-96.244985 64.829896 93.660652 173.641827 -38.118550 -2.088842 2.033397 20.296883 1.955567 0.250078 2.645776 0.352117 0.407749 4.317894 0.614311 2.019054 17.530534 2.621734 1.875286 16.147059 -0.688596 3.728104 -5.752484 -1.993896 -5.820797 0.681547 -2.037245 -1.731401 -1.193691 3.430996 -125.830310 -85.867866 137.262104 3.893277 7.617428 5.685936 -4.419323 2.640292 -0.408795 12.263702 -1.814168 2.276424 142.940442 -74.610197 -153.032551 -6.602914 3.692659 -7.245547 -2.770038 -43.348680 3.014687 -123.826254 87.752273 -119.776604 -1.330690 -9.034098 -1.778470 0.060129 -0.126552 0.047219 -0.011907 -39.545065 1.771000 69.353684 82.807261 60.209750 -5.288279 -12.286303 9.253751 0.708853 1.280589 0.402009
-96.242695 64.818581 93.663610 173.652398 -38.123041 -2.073708 2.028453 20.309205 1.911356 0.251854 2.645690 0.349253 0.408052 4.319894 0.611863 2.022451 17.525017 2.628744 1.855790 16.135879 -0.708014 3.646841 -5.822079 -1.991404 -5.851249 0.673033 -2.066577 -1.846208 -1.200498 3.409779 -129.791796 -85.778613 141.195600 4.460677 8.812080 7.147996 -4.415864 2.649389 -0.390460 12.538472 -1.749322 2.291524 142.519476 -73.987100 -152.894826 -6.747907 4.614982 -8.573632 -2.736858 -43.344858 2.949331 -124.354071 87.777642 -120.287765 -1.308506 -9.016475 -1.768933 0.039997 -0.160968 0.027486 -0.071412 -39.540207 1.809836 69.342362 82.821218 60.146881 -5.313487 -12.276870 9.228842 0.733813 1.276281 0.425408
-96.239124 64.808349 93.666475 173.669546 -38.124430 -2.061781 2.016022 20.317912 1.865489 0.252251 2.644455 0.353014 0.415494 4.320554 0.599061 2.033503 17.526876 2.609622 1.838504 16.117910 -0.696511 3.609187 -5.853168 -1.958612 -5.886548 0.658574 -2.059834 -1.981227 -1.202683 3.380257 -133.477712 -85.648380 144.863057 5.094804 10.004205 8.735175 -4.406894 2.683894 -0.362835 12.816889 -1.728166 2.314839 142.078620 -73.357381 -152.763057 -6.914802 5.574487 -10.033467 -2.722091 -43.332807 2.895074 -124.559188 87.796328 -120.484529 -1.282009 -9.027782 -1.763202 0.015192 -0.161772 0.013623 -0.094840 -39.536508 1.810324 69.421811 82.790203 60.219242 -5.371993 -12.274260 9.198607 0.770421 1.275151 0.436590
-96.227323 64.798741 93.670577 173.661743 -38.120993 -2.066399 2.031884 20.319181 1.854107 0.254230 2.644261 0.350565 0.421118 4.322288 0.592610 2.045678 17.526019 2.595216 1.795905 16.097609 -0.725356 3.605229 -5.870045 -1.893632 -5.909407 0.645768 -2.046013 -2.135105 -1.204539 3.327959 -136.723587 -85.461407 148.098133 5.811833 11.180872 10.426531 -4.391138 2.710358 -0.341026 13.101949 -1.712057 2.327105 141.543291 -72.722960 -152.556629 -7.093683 6.592826 -11.675646 -2.728512 -43.323029 2.903243 -124.183800 87.808581 -120.098327 -1.278521 -9.024492 -1.766541 0.016585 -0.164391 0.004576 -0.119968 -39.539481 1.852385 69.451725 82.789028 60.237210 -5.380330 -12.280581 9.191493 0.771953 1.275887 0.432410
-96.215061 64.790612 93.673096 173.646449 -38.121945 -2.066401 2.051115 20.322915 1.848661 0.259609 2.647104 0.337943 0.422522 4.320120 0.592220 2.055078 17.526622 2.578921 1.782536 16.088273 -0.709652 3.608975 -5.877650 -1.864775 -5.918157 0.640704 -2.008427 -2.296164 -1.209814 3.243137 -139.411680 -85.206942 150.783233 6.626001 12.331649 12.205035 -4.366000 2.732783 -0.321660 13.391116 -1.707908 2.331242 140.871062 -72.084340 -152.229317 -7.291868 7.692799 -13.532313 -2.742831 -43.309253 2.924280 -123.802626 87.817615 -119.721033 -1.279872 -9.019713 -1.765799 0.019782 -0.166137 -0.004017 -0.131257 -39.538645 1.887569 69.490130 82.789860 60.268509 -5.377547 -12.284316 9.187346 0.762449 1.273035 0.426284
-96.203428 64.783403 93.674154 173.634433 -38.125777 -2.067020 2.064794 20.327339 1.852222 0.264635 2.650787 0.328430 0.424886 4.319843 0.579685 2.068692 17.526269 2.566475 1.765211 16.084573 -0.693510 3.568776 -5.899026 -1.845125 -5.931595 0.617320 -2.013805 -2.452406 -1.189719 3.194223 -141.550516 -84.896248 152.934650 7.536621 13.433498 14.058182 -4.337144 2.746948 -0.297212 13.681635 -1.711345 2.318832 140.014431 -71.442671 -151.742346 -7.532623 8.876382 -15.623406 -2.779138 -43.290558 2.943228 -123.393277 87.824753 -119.312025 -1.264200 -9.018578 -1.783018 0.027082 -0.167569 -0.012482 -0.133223 -39.534536 1.908727 69.511676 82.791967 60.291017 -5.354718 -12.292813 9.181731 0.739601 1.271591 0.419233
-96.187354 64.773238 93.679406 173.616711 -38.105958 -2.090266 2.099303 20.313496 1.874788 0.259505 2.644635 0.340095 0.433062 4.324715 0.563001 2.087756 17.539654 2.533674 1.753239 16.064205 -0.643266 3.522199 -5.911338 -1.840874 -5.946463 0.575170 -1.996238 -2.608464 -1.160175 3.142789 -143.324397 -84.547461 154.739011 8.524022 14.463609 15.967813 -4.303546 2.737714 -0.254567 13.969992 -1.723931 2.298377 138.921879 -70.793550 -151.055064 -7.854283 10.130023 -17.958019 -2.918723 -43.290000 3.037414 -122.342644 87.810200 -118.277737 -1.225158 -9.005576 -1.851839 0.056265 -0.172150 -0.007180 -0.166486 -39.557710 1.980052 69.516914 82.812779 60.283585 -5.326337 -12.307372 9.181447 0.721490 1.271946 0.410084
